<svg width="33" height="32" viewBox="0 0 33 32" fill="none" xmlns="http://www.w3.org/2000/svg">
<path fill-rule="evenodd" clip-rule="evenodd" d="M5.79897 4.10818C5.79724 4.10972 5.79587 4.10823 5.79757 4.10668L5.8167 4.08958L5.82122 4.08557C6.01846 3.90863 6.21911 3.73749 6.42297 3.57217C6.59944 3.42936 6.77863 3.29063 6.96037 3.15601C9.22887 1.4757 12.0834 0.805564 14.8571 1.28523L14.8571 1.28529L14.7978 1.53288C12.022 1.01716 9.27369 1.46503 6.9897 3.14593C6.53705 3.47903 6.13965 3.80615 5.79897 4.10818ZM14.8391 1.54063L14.7978 1.53288L13.4929 6.9884C13.3274 6.96772 13.1537 6.95672 12.9713 6.95664C11.4871 6.95608 9.75181 7.84435 9.01031 9.12866L5.47996 15.2434L0.789584 12.9067L0.788758 12.9061C1.12012 11.2462 1.72451 9.59424 2.64226 8.00465C3.65169 6.25627 4.94183 4.77073 6.42297 3.57217C12.4426 -1.30978 21.2475 -1.12696 27.0363 3.95767L24.2116 5.11758L22.4758 7.04588L22.0391 6.29029C20.5676 3.74399 18.0794 1.94558 15.1996 1.34697C15.1099 1.32833 15.0201 1.31304 14.9302 1.29774L14.9302 1.29774L14.8571 1.28523L14.8571 1.28529L14.8391 1.54063ZM22.3134 7.22638L22.3133 7.22647L21.9168 6.54041C20.447 3.997 17.9672 2.19513 15.0919 1.59109C15.0076 1.57339 14.9234 1.55657 14.8391 1.54063L14.6135 4.75586L13.5471 6.99556C13.5291 6.99305 13.5111 6.99067 13.4929 6.9884L13.4347 7.23157L13.5471 6.99556C15.4546 7.26106 16.2555 8.82215 16.7151 9.71801L16.7151 9.71808L16.7153 9.7184L16.7153 9.71848L16.7155 9.71877C16.778 9.84068 16.8343 9.95026 16.8861 10.0425L16.5006 9.37548L16.4366 9.26474C15.7948 8.15415 14.6828 7.41308 13.4347 7.23161C13.2387 7.20317 13.0396 7.18721 12.8381 7.18716C11.354 7.18651 9.98287 7.97741 9.24133 9.26181L5.71918 15.3624L5.71832 15.3622L5.47996 15.2434L5.44807 15.2986L3.20826 14.7721L0.789584 12.9067L0.7887 12.9063C-0.726379 20.4962 3.57743 28.2512 10.892 30.986C12.6401 31.6418 14.5331 32.0008 16.5099 32.0016C18.3466 32.0024 20.0806 31.7008 21.6846 31.1588L21.6846 31.1583L21.6847 31.1588C29.0099 28.6839 33.5718 21.103 32.2957 13.4161C31.9905 11.5653 31.3522 9.73688 30.3578 8.01613C29.4387 6.42582 28.3092 5.07547 27.0365 3.95759L27.0363 3.95767L27.0364 3.95775L22.5039 7.09454L22.4758 7.04588L22.3134 7.22631L22.3134 7.22638ZM25.4093 17.6136L25.408 17.612C25.5307 17.4566 25.6438 17.2922 25.7444 17.1179C26.486 15.8335 26.5831 14.6147 25.8405 13.3297L22.3134 7.22638L22.5039 7.09454L25.9738 13.0989C26.7164 14.3839 26.717 15.9667 25.9755 17.2512C25.8697 17.4345 25.746 17.6162 25.6041 17.7914L25.4093 17.6136ZM25.5716 17.831C25.5825 17.8178 25.5934 17.8046 25.6041 17.7914L30.1141 21.9073L30.0887 21.9381L27.1955 20.0054L25.5716 17.831ZM21.2654 19.002C22.1109 19.2658 23.027 19.1862 23.8144 18.7787C24.4502 18.4496 25.0885 18.0173 25.4078 17.6123L25.4093 17.6136L25.5716 17.831C25.1084 18.3886 24.4581 18.8759 23.6088 19.1328C22.9487 19.3324 22.2419 19.3228 21.5866 19.1075L21.2654 19.002ZM11.355 18.2881L16.0961 10.0763C16.3979 9.5535 16.6032 9.55354 16.9055 10.0767L16.8861 10.0425L21.6388 18.2667C21.9992 18.8904 21.773 19.1687 21.0885 18.9438L21.2654 19.002C21.2494 18.997 21.2333 18.9918 21.2173 18.9866L17.4342 17.7436C16.8262 17.5439 16.1704 17.5437 15.5626 17.7434L11.9209 18.9395C11.2463 19.161 11.0164 18.8933 11.355 18.2881ZM10.436 23.0455C9.96838 21.8746 10.0537 20.542 10.6946 19.432L10.7585 19.3213L11.355 18.2881L11.3699 18.2619L11.3617 18.2691C11.2109 18.3986 9.06912 20.2383 10.1961 23.0644L7.70079 23.2612L4.62555 24.9135C4.5639 24.7533 4.5061 24.5911 4.45226 24.4271C3.53593 21.6367 3.85547 18.5905 5.32322 16.0483L5.71912 15.3625L5.71832 15.3622L5.44807 15.2986L5.08115 15.9341C3.61175 18.4792 3.39718 21.8952 4.32047 24.6868C4.34948 24.7744 4.38151 24.8606 4.41353 24.9468L4.43848 25.0141L4.43855 25.0141C5.41173 27.6545 7.55486 29.56 10.1466 30.6847C10.392 30.7912 10.6405 30.8917 10.892 30.986C11.0997 31.0637 11.3097 31.1372 11.5221 31.2067L11.5522 31.2165C11.5545 31.2173 11.5551 31.2153 11.5529 31.2146C11.1205 31.0705 10.6382 30.8899 10.1229 30.6644C7.60069 29.5606 5.63101 27.4992 4.639 24.9483L10.2176 23.1173C10.3107 23.3437 10.4249 23.5764 10.5628 23.815C11.3054 25.1001 13.0414 25.7946 14.5255 25.7953L21.3524 25.798L21.6846 31.1583L22.09 28.1328L21.3844 25.7981L22.3892 25.7985C25.3301 25.7997 28.1308 24.5462 30.0873 22.3532C30.1485 22.2846 30.2069 22.2141 30.2653 22.1436L30.3118 22.0877L30.3098 22.0859L30.312 22.0873C32.1124 19.9266 32.7261 16.9867 32.4029 14.1818C32.3734 13.9263 32.3377 13.671 32.2957 13.4161C32.2578 13.1877 32.2147 12.9591 32.1664 12.7306C32.1656 12.7269 32.1629 12.7135 32.1599 12.6996C32.1595 12.6974 32.1575 12.6978 32.1579 12.7C32.2495 13.1462 32.3345 13.6539 32.3972 14.2126C32.7082 16.9872 31.8801 19.7616 30.1141 21.9073L30.3098 22.0859L30.0887 21.9381C30.0053 22.0386 29.9199 22.1377 29.8324 22.2354C27.8735 24.4217 25.0741 25.6662 22.1365 25.6649L21.3441 25.6645L14.2948 25.6617C12.8106 25.6611 11.4388 24.8691 10.6963 23.5841C10.5955 23.4096 10.5096 23.2294 10.4361 23.0455L10.436 23.0455ZM10.436 23.0455L10.1961 23.0644C10.2032 23.082 10.2103 23.0996 10.2176 23.1173L10.4361 23.0456L10.436 23.0455ZM21.3441 25.6645L21.3524 25.798L21.3844 25.7981L21.3441 25.6645ZM4.639 24.9483C4.63449 24.9367 4.63001 24.9251 4.62555 24.9135L4.43853 25.014L4.43855 25.0141L4.639 24.9483Z" fill="url(#paint0_linear_251_277)"/>
<defs>
<linearGradient id="paint0_linear_251_277" x1="21.6966" y1="25.5977" x2="31.9857" y2="18.9552" gradientUnits="userSpaceOnUse">
<stop stop-color="#0092FF"/>
<stop offset="1" stop-color="#45B2FF"/>
</linearGradient>
</defs>
</svg>
